<?xml version="1.0" standalone="no"?>
<!DOCTYPE svg PUBLIC "-//W3C//DTD SVG 20010904//EN"
 "http://www.w3.org/TR/2001/REC-SVG-20010904/DTD/svg10.dtd">
<svg version="1.0" xmlns="http://www.w3.org/2000/svg"
 width="600.000000pt" height="600.000000pt" viewBox="0 0 600.000000 600.000000"
 preserveAspectRatio="xMidYMid meet">
<metadata>
Created by potrace 1.14, written by Peter Selinger 2001-2017
</metadata>
<g transform="translate(0.000000,600.000000) scale(0.100000,-0.100000)"
fill="#000000" stroke="none">
<path d="M0 3000 l0 -3000 3000 0 3000 0 0 3000 0 3000 -3000 0 -3000 0 0
-3000z m3130 920 c266 -77 461 -278 524 -542 l6 -28 -114 0 -114 0 -18 48
c-10 26 -40 79 -67 119 -102 152 -244 224 -447 224 -222 0 -400 -113 -504
-322 -65 -130 -81 -210 -81 -414 0 -205 16 -284 82 -417 107 -214 285 -323
528 -322 128 1 213 25 310 89 123 82 215 256 215 407 l0 48 -240 0 -240 0 0
95 0 95 351 0 352 0 -6 -172 c-8 -282 -53 -404 -207 -559 -68 -69 -102 -94
-170 -127 -122 -60 -183 -74 -345 -79 -119 -4 -153 -2 -230 16 -223 53 -404
197 -508 406 -83 167 -112 321 -104 568 4 141 9 190 30 268 88 334 301 550
607 615 95 20 294 12 390 -16z m1834 16 c290 -56 511 -271 571 -553 l7 -33
-115 0 -115 0 -6 33 c-20 104 -138 248 -246 300 -119 57 -286 74 -414 41 -197
-51 -350 -215 -418 -450 -20 -70 -23 -100 -23 -269 0 -217 11 -276 75 -410 44
-93 129 -192 206 -241 181 -116 424 -118 613 -7 93 55 174 161 206 268 l12 40
112 3 113 3 -7 -33 c-53 -255 -238 -457 -492 -539 -105 -33 -330 -39 -444 -10
-283 70 -497 294 -579 607 -51 195 -49 453 5 651 83 311 308 535 599 598 82
18 247 18 340 1z m-3596 -32 c106 -22 191 -65 266 -134 109 -103 166 -248 166
-424 -1 -287 -134 -479 -390 -562 -46 -14 -102 -18 -347 -22 l-293 -4 0 -339
0 -339 -105 0 -105 0 0 920 0 920 365 0 c294 0 381 -3 443 -16z"/>
<path d="M770 3340 l0 -392 268 4 c251 4 270 5 327 27 82 32 164 114 195 196
19 49 24 79 23 165 0 193 -64 299 -223 366 -40 16 -77 19 -317 22 l-273 3 0
-391z"/>
</g>
</svg>
